<svg xmlns="http://www.w3.org/2000/svg" viewBox="0 0 631.3 446.3" role="img" aria-label="haluta">
<path fill-rule="evenodd" clip-rule="evenodd" fill="#211613" d="M495,297.8c0,0-32.3,8.5-32.3,8.3v24.3h-12.5v21h12.5V413
	c0,15.7,8.8,32.6,33.8,32.6c6.7,0,12.5-1.6,15.9-3.1v-19.7c-2.6,0.7-4.1,1.2-6.7,1.2c-7.3,0-10.7-4.5-10.7-13.6v-59h17.7v-21H495
	V297.8z M387.6,421.6c-3.6,1.9-7.9,2.8-13.8,2.8c-10.1,0-15.8-5.6-15.8-15.3l0.2-78.8h-32.5v76.4c0,26.7,15,39.2,47.3,39.2
	c19.3,0,35.6-3,47.1-8.7l0.3-106.9h-32.6L387.6,421.6z M285.2,411.2v-79.8v-52.2h-33v134.6c0,15.7,9.1,32.6,34.6,32.6
	c6.9,0,12.9-1.5,16.3-3.1v-19.6c-2.6,0.8-4.2,1.2-6.8,1.2C288.7,424.8,285.2,420.3,285.2,411.2z M57.2,329.1
	c-8.5,0-16.4,1.7-24.3,5.3l-0.1,0.2v-56.1H0v165.4h32.5l0.2-92c4.3-2.2,8.5-3.2,14-3.2c11.4,0,17.1,5.5,17.1,16.3l-0.3,78.9h32.6
	v-79.5C96.1,342,81.9,329.1,57.2,329.1z M600.9,425.8c-3,1.5-7.2,2.4-12,2.4c-13.1,0-20.7-5.7-20.7-19c0-18.2,12.9-22.8,32.7-24.7
	V425.8z M587,328.5c-14.7,0-29.1,3-42.5,8.4c0,0,6.7,17.8,6.7,18.6c4.6-2.1,16.7-6.9,29.6-6.9c14,0,20.3,4.7,20.3,15.5l-0.3,5.5
	c-29.4,2.7-63.1,9.8-63.1,40.9c0,23.6,16.6,35.6,49.4,35.6c18.4,0,34-2.9,44.1-8.3v-67.8C631.3,342.4,616.5,328.5,587,328.5z
	 M189.8,425.8c-2.9,1.5-7.2,2.4-12,2.4c-13,0-20.6-5.7-20.6-19c0-18.2,12.9-22.8,32.6-24.7V425.8z M176,328.5
	c-15,0-28.9,2.9-42.6,8.4c0,0,6.8,17.8,6.8,18.6c4.5-2.1,16.6-6.9,29.6-6.9c14,0,20.3,4.7,20.3,15.5l-0.2,5.5
	c-29.5,2.7-63.2,9.8-63.2,40.9c0,23.6,16.6,35.6,49.4,35.6c18.4,0,34.1-2.9,44.2-8.3v-67.8C220.3,342.4,205.3,328.5,176,328.5z"/>
<path fill-rule="evenodd" clip-rule="evenodd" fill="#211613" d="M346,185.2l-0.3,0.2c-1.3,1-32.2,23.5-65.3,0
	c-12.8-9.1-27.2-13-42.7-11.7H237v8l1.1-0.1c13.5-1.3,26.2,2.2,37.7,10.4c30.3,21.5,62.1,9.3,74.8-0.1L350,192l0.9-0.5
	c1.7-1.5,17.8-14.9,42-11l1.1,0.2v-8.1l-0.8-0.1C372.6,169.4,355.3,177,346,185.2z M386.5,106.6c-22.4-0.9-36.6,9.8-40.5,13.2
	l-0.4,0.3c-3.2,2.4-33.3,22.6-65.2-0.1c-10.8-7.6-22.8-11.6-35.6-11.9V63.3h47V7.8h47.7v55.5h47V106.6z M347.3,55.5V0H284v55.5
	h-47.1v55v5.7l1.1-0.1c13.6-1.3,26.3,2.2,37.8,10.4c30.3,21.5,62.1,9.4,74.8-0.1l0.3-0.2c1.7-1.6,17.9-15,42.4-11l1.1,0.1l0.1-59.8
	H347.3z M346,152.4l-0.3,0.3c-1.3,0.9-32.6,23.2-65.3-0.1c-12.8-9-27.2-13-42.7-11.7L237,141v7.9l1.1-0.1
	c13.5-1.3,26.2,2.2,37.7,10.4c30.3,21.5,62.1,9.4,74.8,0l0.3-0.3c0.7-0.6,17.5-15,42.1-11l1.1,0.2v-8.2l-0.8-0.1
	C372.7,136.8,355.3,144.3,346,152.4z"/>
</svg>
